<?xml version="1.0" encoding="UTF-8"?>
<svg id="Layer_1" data-name="Layer 1" xmlns="http://www.w3.org/2000/svg" viewBox="0 0 115.82 406.66">
  <g id="Winebottle">
    <path d="M6.73,382.63c-1.4-3.19-3.5-26.54-3.97-31.85C-.33,315.47-.53,274.37.72,238.73c1.15-32.47,10.71-60.56,19.53-91.44,2.3-8.07,7.02-17.81,8.42-25.58,3.02-16.8,6.38-42.93,7.12-59.88.37-8.43,1.03-25-.27-32.78-.76-4.57-5.45-2.61-5.84-4.35-.89-3.8,2.84-4.78,4.14-6.88,2.16-3.49.08-6.29.09-8,0-.81.85-6.53.85-6.53h0c.24-1.06.17-2.4,7.15-2.39h12.59l13.65.84h0c3.92.14,3.17.43,3.75,8.26.15,2.03-2.39,4.15.11,8.56,1.43,2.53,2.83,1.04,2.91,4.83.05,2.63,1.06,1.97-2.42,3.68-1.96.96,1.62,35.89,2.4,41.58,7.5,54.4,33.84,102.01,37.8,155.29,2.13,28.61,1.87,59.85,2.1,88.81.18,22.38,2.22,42.32,0,71.08-.11,1.41-5.66,13.42-18.53,16.73M96.26,400.56c-20.28,6.82-43.53,7.87-60.31,3.43-11.37-3-27.41-8.42-29.22-21.36M51.48,84.57c-.22-.29-2.6-1.37-2.72-1.28-1.72,1.3-5.29,34.32-6.16,39.36-4.66,27.13-12.25,56.74-13.85,84.15-.32,5.52-.16,11.12,1,16.49,1.83-.38,1.85-1.96,2.03-3.46,2.42-20.25,5.8-40.64,9.23-60.77,3.62-21.23,10.45-46.04,11.47-67.32.08-1.66-.11-6.01-1-7.17ZM102.63,227.41c-1.06-1.66-11.17-.97-11.88-.1-.23.29.06-.44-.08.38l9.51.38c3.02,4.11-2.22,13.38.5,14.16.49.14-.14.12,0,0,.56-.5,2.34-14.19,1.94-14.83ZM88.74,268.29c-25.65,5.98-52.67,9.35-76.98-3,1.91,7.96.71,16.37.94,24.54.79,27.13,1.97,54.86,5.06,81.95.21,1.8.65,3.6,1.17,5.33,24.04,8.75,48.05,5.86,72.82,4.19l-3.01-113.01Z"/>
    <path d="M49.78,282.87c-.49-.34-2.45-1.62-2.63-1.4,1.36,3.69.16,5.97-2,8.98,6.28,1.99,9.73-2.23,14.97-4.5,0-2.22-2.9-1.4-2.02-4.44-3.72,1.25-6.92-1.64-5.97,2.96-2.49.82-1.75-1.18-2.35-1.6ZM68.83,283.74c-2.78-4.42-8.64.09-7.55,2.58.08.18,2.84,2.41,3.32,2.13,1.4-.78.85-3.15,2.5-2.99.37,4.07,2.57,7.16,6.77,7.77,1.38.2,3.08-.88,3.21-.79.59.41-.02,5.12,3.01,3.99.2-2.25-.71-4.66-2.61-5.89-2.97-1.91-5.37.6-6.87-1.03s-.93-4.45-1.77-5.78ZM32.16,295.45c-.13-.22-2.56-1.43-2.99-1l-1.49,2.99-4.5-2.98c-.75.8,3.12,7.43,4.49,7.98.61-1.29,5.06-5.99,4.49-6.99.1.2,2.53,2.94,2.91,3.35,2.97,3.14,3.05-6.22,4.2-7.23,1.05-.93,4.7,1.48,3.87-2.11-3.46,2.68-2.61-1.87-4.47-.99-2.37,1.12-.86,4.42-2.01,5.98-2.85-1.84-2.43-7.05-6.49-6.98-.28.31,1.71,7.44,1.99,7.99ZM63.89,307.65c-1.22-2.2-11.9-3.24-14.75-4.2.78,8.02,16.16-2.16,12.73,9.24-1.33,4.43-7.57,9.74-4.24,2.76l-4.5,1.99c-.82,2.8,2.15,1.23,2.09,3.43-.08,3.36-2.83,4.8-3.17,8.02-.3,2.86,1.76,15.69,4.06,17.02,2.65,1.53,5.27-1.46,3.01,3.47l3.32-3.02.66-1.97c-7.85,3.14-9.51-9.01-9.03-14.49.14-1.67,2.26-7.58,3.17-8.88,1-1.43,6.42-6.65,6.83-8.32.29-1.18.36-4.09-.18-5.08ZM53.62,308.46c-.99.7.54,1.37,1.02,1.96.99-.66-.47-1.32-1.02-1.96ZM44.94,318.65c.31.19,1.96,3.45,3.71,3.76-3.07-8.86-7.75-4.89-14.02-2.97-1.51.46-2.99-1.14-2.46,1.98,3.84,1.59,9.92-4.49,12.77-2.78ZM52.12,319.43c-1.09-1.09-3.08.9-1.99,1.99s3.08-.9,1.99-1.99ZM58.12,349.4c-7.47.81,1.88,7.23,0,8.99-6.1.86-14.44-6.27-16.97,1.99,2.3,0,2.85-1.92,5.48-2.08,3.78-.24,13.79,5.9,13.6-1.41-.07-2.46-2.82-4.57-2.1-7.48ZM80.09,359.4c-4.28,1.84-11.2-.78-13.98,2.98,3.49-.41,6.97-1.53,10.56-1.07,1.61.2,3.58,6.17,3.41-1.91ZM65.11,362.4l-9.98.48c2.2,2.27,8.52,2.62,9.98-.48ZM73.1,364.39c-9.14,3.03-19.72-.61-28.46-.02-.65.04-6.56.96-4.5,3,.48.47,11.31,3.27,12.98,3,.78-4-7.2-.86-7.98-3.98,8.81-1.52,17.64,3.61,25.76.23,1.47-.61,2.71.62,2.19-2.24Z"/>
  </g>
</svg>