<?xml version="1.0" encoding="UTF-8"?>
<svg id="Layer_1" data-name="Layer 1" xmlns="http://www.w3.org/2000/svg" viewBox="0 0 190.45 317.01">
  <g id="Glass">
    <path d="M69.58,110.61c-4.35,5.1-12.48,11.21-16.67,16.84-6.85,9.21-3.18,16.11-2.96,25.96.25,10.9-.18,21.69.95,32.55,10.06-.63,22.27,2.25,29.65,9.35s8.48,15.26,5.41,25.21c-2.6,8.41-8.17,12.67-16.81,14.19-9.21,1.62-40.04-.12-47.29-5.2-1.08-.76-11.15-11.8-11.49-12.58-.18-.4-1.46-7.75-1.51-8.4-1.08-13.63,10.2-18.89,21.82-21.28,2.97-.61,15.59-.66,16.12-2.85l-7.04-57.29c-4.07.25-3.09-2.71-4.56-4.19-2.45-2.47-11.74-6.25-15.63-9.11C-7.14,94.08.42,71.35,2.9,42.43c1-11.67.34-21.31,5.27-32.73,1.95-4.52,9.95-7.52,14.49-8.51,10.52-2.29,35.92-1.63,44.6,4.9,3.89,2.93,6.51,12,8.13,16.87,2.11,6.35,4.6,15.23,6.24,21.76,7.34,29.32,7.91,42.47-12.05,65.88ZM34.71,4.24c-10.39.89-15,3.99-23.32,9.68-2.29,3.72,4.3,5.05,7.09,5.96,13.67,4.46,37.92,3.48,48.41-7.44-7.2-7.34-22.23-9.05-32.17-8.2ZM50.92,115.93c2.78,1.16,5.3-.27,7.7-1.8,19.39-12.36,27.5-28.47,24.03-51.42-2.55-16.87-8.8-33.22-12.74-49.77-2.46.29-2.43,3.84-3.28,4.71-2.67,2.7-17.03,7.88-21.22,8.28-8.33.8-21.5-1.75-29.48-4.5-2.18-.75-5.34-4.16-7.4-2.57-.66.51-2.39,8.91-2.61,10.58-1.87,14-3.64,33.96-3.99,48-.36,14.49,8.89,27.43,20.5,35.48,7.12,4.93,7.74,3.89,14.75,5.15,1.77.32,3,2.24,4.43,2.66,3.69,1.08,1.57-1.36,2.8-3.78,1.89-3.72,7.96-3.98,9.29-13.78.16-1.17.3-13.73.2-14.7-.17-1.63-2.07-2.82-2.1-5.04-.04-2.58,2.23-3.2,2.11-5.49-3.37,1.15-6.22,2.82-10.03,1.57-7.3-2.39.17-8.06,3.7-10.41,5.08-3.39,11.09-5.71,16.25-9.75,2.88-2.26,4.13-6.27,7.65-6.37,5.83-.17,1.67,3.85-.54,6.48-2.78,3.31-6.56,6.38-10.02,8.98,4.03,2.17,9.01.14,7.76,6.88-.31,1.7-4.65,3.91-5.34,6.57-.55,2.09,1.06,4.51.12,8.07-2.03,7.7-9.06,18.46-12.54,25.96ZM50.91,200.96c-.47-.43-2.26-.15-3.28-2.23-1.2-2.45,0-7.19-1.65-8.35-4.09-2.89-19.89,2.13-23.06,6.56,5.87.9,13.51,1.75,18,6l-15.99-.99c-1.97,5.16,3.14,7.53,3.98,10.52,1.18,4.2-4.99-.8-5.97-2.03-3.63-4.53-2.51-5.67-1.73-10.72.21-1.33,1.85-1.98-.77-1.76-8.47,9.32-1.63,16.22,7.5,20.47,16.58,7.72,32.68,8.64,43.98-7.47-.54-.49-10.89,5.92-12.96,6.53-7.55,2.2-21.11,2.81-27.02-3.04,2.57-3.24,6.44-.63,9.49-.51,3.82.15,7.67-.08,11.48,0,.75-.68-7.5-12.67-2-12.01-.04-.32.14-.85,0-.97ZM66.92,210.94c17.84-12.26-3.36-18.4-15-20,.91,2.48-1.99,5.04-2.03,6.51-.08,3.23,2.99,1.62,4.04,2.09,1.33.6,2.45,3.12,3.61,3.33,2.2.4,12.12-13.04,9.38,8.06ZM67.91,221.94c2.52,1.96,19.35-8.99,15.76-18.19-1.32-3.39-8.64-11.36-12.26-11.82-1.89-.24-2.05.63-1.04,2.05,1.17,1.64,8.41,5.65,8.51,6.47l-2.97.5c-.63,1.18,3.54,3.65-.03,9.25-1.46,2.28-11.18,9.25-7.98,11.75Z"/>
    <path d="M180.66,207.74c.14.08.66,3.37,2.3,1.64.48-.51-1.25-4.47,2.02-2.52,1.92,5.97,6.55,8.66,3.81,14.86-3.79,8.58-13.53,10.65-19.76,15.23-3.15,2.31-6.89,7.76-10.42,10.07-12.05,7.9-6.85-2.77-12.58-4.24-7.49-1.93-11.46,4.61-16.15,8.02-22.62,16.43-48.29,37.41-72.59,50.43-3.55,1.9-6.11-.05-3.4,5.73,2.94,6.27,8.39,8.66,14.9,6.76,6.84-1.99,31.34-19.19,37.69-24.31,9.16-7.39,19.44-14.18,28.95-22.05,2.03-1.68,13.8-14.62,15.52-12.96.16,1.46-1.09,3.17-2,4.21-9.61,11.03-22.43,17.77-33.91,26.37-13.82,10.35-27.44,23.49-43.7,30.3-8.69,3.64-17.12,1.77-19.97-7.82-.5-1.68-.2-5.67-.53-6.02-.29-.31-4.89.56-2.41-2.07.95-1,9.77-4.43,12.19-5.81,13.93-7.96,24.79-18.99,37.41-28.59,10.48-7.97,22.68-13.95,31.92-23.57l-29.81,6.18c-1.37,5.31-6.36,8.52-11.73,8.87-2.21.14-5.22-1.23-5.43-1.06-1.44,1.15-.56,7.05-8.52,7.02-9.48-.04-4.47.68-10.45,2.55-2.54.79-5.21-.03-7.38.62-2.85.85-2.31,6.14-10.04,5.76-1.78-.09-11.96-2.76-7.65-5.46,2.36-1.47,11.05,3.74,12.57-2.46.33-1.37-1.22-4.45.96-5.02,2.35-.63,6.66,5.7,11.48,1.99,1.11-1.55-6.7-5.93-.51-8.76,3.09.16,4.39,4.98,6.17,5.6,2.36.83,9.89.34,9.27-3.2-3.02-1.89-6.35-8.34-1.3-9.4,6.07-1.28,4.89,6.19,5.42,6.72,1.06,1.05,11.88.06,12.94-3.45-7.48-7.8,1.26-4.29,5.36-4.56,8.29-.55,20.88-6.74,27.27-6.94,2.45-.07,3.69,2.42,5.68,1.91,1.37-.35,8.04-6.98,9.99-8.26s11.8-7.4,13-7.86c5.97-2.29,17.28-.89,19.72-8.77l-5.99.99c-.63-.6,4.22-7.82-5.35-1.84-5.99,3.73-2.15,7.38-2.66,7.84-.38.35-3.85-.48-4.41-.89-5.31-3.9,12.49-16.84,22.11-11.74ZM182.97,217.39l-34.98,24.49,3.48,3.48c7.61-12.76,25.8-14.91,31.5-27.97Z"/>
    <path d="M138.97,249.38c-.44,2.9.1,3.44,3.01,3.01-2.17,5.04-8.84,5.35-13.51,8.99-6.2,4.84-9.56,11.51-14.46,16.54-.86.88-9.48,7.72-10.06,7.99-4.22,1.94-8.02-6.37-6.85-8.37.34-.58,9.76-6.53,11.2-7.33s9.34-3.47,9.64-3.89l-.97-1.92c3.14,1.49,3.15-.38,5.03-1.33.59-.3,1.62.25,1.8.08,2.28-2.11,2.35-11,9.18-9.74l-3.99,4.49c6.24,1.32,4.66-8.08,9.99-8.51Z"/>
  </g>
</svg>