<?xml version="1.0" encoding="UTF-8"?>
<svg id="Layer_1" data-name="Layer 1" xmlns="http://www.w3.org/2000/svg" viewBox="0 0 282.33 280.92">
  <g id="Plate_2" data-name="Plate 2">
    <path d="M168.76,109.73c13.33,17.67,26.43,38.68,40.16,55.34,8.65,10.5,20.22,18.81,26.92,31.06,3.3-4.08,8.95-5.99,12.72-9.03,1.19-.97,8.4-7.73,8.86-8.39,2.58-3.68-1.19-3.97-1.88-6.26-1.47-4.91.05-13.16-4.16-17.84-2.13-2.36-12.21-7.75-16.04-10.96-18.05-15.07-35.19-36.04-49.02-54.98-7.15-9.8-10.28-17.73-16.55-27.45-7.58-11.76-16.34-21.95-22.15-34.9-.43-.95-.1-2.93-.31-3.14-2.36-2.41-19.19,8.32-22.72,9.71-1.79.71-2.83,1.91-4.22-.25l20.72-11.26c5.59-.32,10.59-1.53,15.16,2.36,2.74,2.34,7.45,11.13,9.12,11.88,3.43,1.54,12.94.15,17.47.53,10.55.89,22.58,7.66,30.99,14.01,16.77,12.65,39.59,38.81,50.7,56.3s21.81,40.97,14.55,62.9c-2.2,6.63-7.43,8.74-8.26,10.79-.59,1.46.79,2.94.07,4.92-4.35,11.95-11.75,26.72-17.92,38.17-5,9.29-10.3,15.99-16.36,24.66-11.02,15.77-62.74,29.84-81.77,32.2-22.66,2.81-55.07-1.89-74.82-14.14-2.34-1.45-3.9-3.93-6.52-5.48-18.5-10.91-38.21-18.41-49.68-37.35-.88-1.46,1.2-3.35.06-5.96-3.05-6.93-14.08-15.38-16.06-22-1.64-5.49-.26-14.9-1.91-22.09-2.18-9.53-4.33-15.89-4.6-26.41-.24-9.44,10.96-38.32,17.08-46.02,3.61-4.55,9.09-8.56,12.98-13.02,1.27-1.45,2.12-4.85,3.52-5.48,1.54-.7,3.11-.17,2.46,1.96-2.62-.17-2.47,2.74-3.97,4.53-3.77,4.51-9.36,8.44-12.99,13.01-10.62,13.36-18,41.14-16.01,57.96.71,6.04,4.21,11.26,4.88,17.12,1.8,15.74-1.78,15.05,8.46,29.04,13.95,19.06,28.12,22.97,46.98,34.52,12.4,7.6,21.31,20.03,38.28,21.77,6.32.65,15.38-1.66,22.88-.93,5.21.51,11.65,4.05,15.99,4.08,5.53.04,22.82-5.06,29.36-6.75,23.92-6.17,37.3-11.89,57.7-25.3,15.83-10.4,12.17-12.94,19.28-27.72,2.73-5.68,7.54-11.6,11.18-16.82-.77-1.4-2.59-.13-3.53.47-5.37,3.43-10.89,9.06-16.96,12.04-.79,1.32-.82,6.86-.58,8.57.27,1.92,2.03,1.33,2.13,2.05.85,6.32-16.25,12.71-21.44,12.09-2.79-.33-4.89-4.78-7.69-4.25-2.94.56-9.16,5.17-12.24,6.71-1.98.99-10.29,3.42-10.69,3.83-.28.29,1.86,6.31,1.02,8,4.66.56,7.56-3.76,11-4.6,6.36-1.55,4.94-.16,12-3.91,1.58-.84,2.75-.56,1.99.99-.46.94-7.64,4.67-8.99,5.03-1.69.45-4.6-.58-6.29.45-.66.41-3.29,6.99-5.22,7.01-.72,0-2.45-3.75-4.49-2.98-.53,10.97-11.36,11.49-19.81,8.3-1.4-.53-3.34-.78-3.21-2.79,6.06,1.38,17.64,6.08,20-2.51-9.26,2.33-3.68-7.38,0-10.51.15-.77-.92-.61-1.47-.48-1.52.37-19.8,8.16-20.44,9.07-.13.19,1.03,1.79.48,2.9-1.06,2.14-25.95,13.24-30.13,14.73-2.44-5-4.25-1.9-7.79-3.82-9.24-5.03-12.94-21.82-20.7-28.34-6.52-5.48-15.78-6.66-22.85-10.15-11.72-5.78-24.28-20.47-31.91-31.09-1.29-1.79-9.78-15.1-9.98-16.02-1.78-7.89-1.09-27.36-.09-35.69.81-6.82,8.2-15.78,7.82-22.18-.13-2.22-2.84-3.22-3.79-5.07-2.07-4.02-7.63-14.95-7.13-18.78.2-1.5,2.63-4.95,1.99-5.57-.15-.15-2.36.29-3.5-1-1.66-1.89-1.91-6.36-.57-8.58,1.79-2.97,16.27-7.89,20.3-9.7,4.99-2.24,9.96-6.91,15.76-6.73.56,2.89-.84,1.59-2.19,2.25-7.81,3.8-14.99,8.34-23.48,10.56l-7.31,4.17c4.58-1.12,11.48,6.19,13.4,10.11,2.85,5.79,4.69,14.29,7.41,20.59,8.06,18.62,18.85,37.15,27.36,55.64,9.02,19.6,16,38.14,26.43,57.57,3.86,7.19,12.18,18.34,14.9,25.15.56,1.4-.7,2.82-.05,3.96,1.62,2.85,6.22-1.73,8.54-2.51,21.08-7.09,42.19-14.1,62.21-23.79,3.01-1.46,5.28-4.25,8.79-4.73-4.01-8.71-10.47-16.13-14.87-24.61s-6.14-16.59-8.87-25.04c-6.63-20.56-31.28-43.83-41.17-62-1.05-1.92-.19-3.49-1.02-4.85-3.76-6.19-17.49-16.03-23.09-21.95-3.97-4.2-6.79-9.55-10.97-13.52,1.35,5.01,4.46,10.55,4.77,15.81.16,2.77-1.19,4.84-.59,7.42.66,2.81,10.68,19.28,12.98,23.1,17.75,29.48,39.27,53.56,59.25,80.75,4.08,5.55,10.31,14.74,7.06,21.9-.44.97-7.59,7.79-8.73,8.27-4.42,1.86-8.24,1.08-12.32.85-.58-.03.06,2.13-1.85,1.94-11.61-1.13-16.52-14.62-20.32-23.79-7.72-18.62-12.63-39.32-19.55-58.45-2.9-8.03-8.93-16-8.61-25.35l-6.08-8.44c.17,3.63,8.43,13.99,3.85,16.85-4.21,2.63-4.43-3.29-5.83-5.13-2.92-3.85-12.01-15.83-15.32-18.44-1.64-1.29-4.56-1.37-6.68-2.83s-6.11-8.09-2.55-6.45c1.55.72,13.56,11.51,13.35,4.66-.11-3.65-4-2.49-6.39-3.61-9.14-4.3-16.56-11.49-19.73-21.27.65-1.64-4-6.93-1.21-7.78,1.1-.34,6.55,18.81,11,19.99-.53-5.23,19.12-11.66,21.04-10.11,5.58,4.54-4.17,4.58-3.5,7.55.29,1.27,7,6.19,5.93,9.97-.6,2.11-4.06.61-3.96,2.58,8.57,4.42,12.81,15.43,18.56,22.98,1.4-.31,4.46,4.09,5.43,3.03,1.23-1.34-16.35-28.08-17.55-31.95,1.47-11.64-2.69-19.07-8.28-28.72-1.06-1.83-6.6-11.93-7.19-12.33-.39-.26-1.84,1.11-1.88,1.48-.18,1.84,8.14,15.58,8.71,19.23,1.44,9.34-7.53-5.32-8.64-7.39-.91-1.7-5.28-11.42-4.92-12.12.11-.22,1.77-.23,1.74-.65-1.63-4.42-9.23-22.79-8.74-26.08.15-1.01,2.03-1.97,2.73-1.46.44.32.11,4.14,2,3.99.24-4.05-.43-8.22.25-12.26.27-1.64,4.08-10.06,4.93-10.56,3.53-2.07,8.77,5.9,10.66,8.49,23.61,32.24,42.48,68.93,66.6,100.91ZM141.66,88.82c-4.71-6.85-6.83-14.77-10.12-21.38-5.57-11.21-15.88-22.47-22.24-33.76-4.75-8.43-8.93-21.8-13.76-29.24-.58-.89-1.79-3.31-3.19-2.29-.38.28-3.57,7.53-3.78,8.73-2.37,13.83,4.95,21.71,10,33.61.78,1.83.25,3.56,1.53,6.33.84,1.81,3.09,3.05,3.24,5.31,1.71.36.46-5.48,2.98-2.99.16.16.22,2.85,1.15,4.36,7.74,12.54,21.34,26.3,32.22,36.29,4.94,4.54,10.58,4.42,5.08-2.6-.96-1.23-2.62-1.67-3.1-2.37ZM109.31,22.16c-4.98-.41.51,6.74,1.21,9.31l23.79,36.67,2.02-2.47-27.02-43.51ZM164.72,39.9c-1.65-2.36-3.73-7.86-5.96-10.68-2.51-3.17-11.54-10.78-9.19-2.81s14.48,22.51,19.2,29.81c8.88,13.72,13.73,25.28,23.75,38.25,13.35,17.28,27.99,32.31,43.33,47.66l19.47,13.02c1.22-1.36-4.77-10.86-6.15-12.34-2.52-2.69-5.29-2.83-6.89-4.37-3.41-3.31-6.47-12-9.09-15.68-4.89-6.86-13.24-14.23-18.3-21.66-4.18-6.13-6.82-13.64-11.58-19.41-12.42-15.04-26.29-24.19-38.58-41.78ZM182.83,38.16c-4.95-.47-10.48.34-15.5,0-.72,3.5,3.78,5,4.67,6.33,1.23,1.83,2.03,4.85,3.51,6.99,6.74,9.79,5.81,4.07,15.17,5.81,2.84.53,8.05,3.16,10.11,2.92.81-.1.06-5.88,5.88-3.91,4.82,1.63-.31,7.37.72,8.79.14.2,3.05.88,4.45,2.06,5.43,4.59,10.8,10.97,15.99,15.99,2.19-4.64,8.82-6.74,11.02-1.01,1.72,4.47,3.31,12.93-2.52,14.52,4.62,7.35,12.71,8.7,19.52,13.48,3.89,2.73,6.11,5.66,9.53,8.49,1.23,1.02,3.78,1.39,3.94,1.55,4.12,4.1-5.19.09-5.54.03-3.53-.65-11.14.7-10.3,5.32.71,3.88,8.02,1.46,9.38,4.6.52,1.2-1.09,3.05-1.1,4.53-.02,3.76,3.72,5.44,5.41,8.17,3.68,5.97,4.74,12.93,5.17,19.84.13,1.99-.23,1.56-2,1.49-.57-10.57-1.99-16.69-8.61-24.9-.85-1.05-3-1.6-3.35-2.73-.62-2.02,2.67-3.97,1.95-6.36-7.63,2.13-14.05-8.91-9.49-15l.5,6.99,1.98-.47c-2.4-2.96.32-4.73,1.03-7.52,3.39.66.55,4.41.99,5l6.98-1.99c-3.8.3-3.98-2.98-6.03-4.45-4.23-3.04-9.08-4.82-13.47-7.55l-.99,3.99c-1.7-3.6-6.76-15.3-10.92-15.02-3.03.2-6.88,5.15-9.13-1.92-2.44-7.65,4.03-7.15,3.52-9.5-3.22-3.49-7.35-6.02-10.87-9.15-2.07-1.85-2.94-5.83-6.53-5.43-2.16.24-4.32,3.77-7.99,1.14-2.06-1.48.94-6.39.42-7.08-.93-1.23-14.55-4.03-17-3.01,2.15,2.27,3.8,5.34,5.96,7.53,6.31,6.39,16.28,15.18,23.1,19.89,2.92,2.02,19.95,19.38,17.93,21.56l-5.5-3.99c-.78,3.77,6.47,6.58,9.19,9.38,5.62,5.78,19.63,30.51,24.48,38.96,4.48,7.81,4.86,7.73,7.91,16.9.23.69,1.79.74,1.93,1.47.43,2.15-.66,4.63-1.04,6.76-.26,1.46-2.17,2.85.53,2.54,13.81-11.99,13.05-29.49,7.77-45.77-9.15-28.21-30.98-53.15-52.06-73.22-10.11-9.62-26.53-21.67-40.7-23.02ZM117.32,229.16L46.83,79.18c-.51,0-3.15,7.72-3.33,8.74-.75,4.3,2.66,5.87,4.4,9.17,3.53,6.72,7.7,13.03,10.93,20.07,11.41,24.86,20.79,52.34,33.98,76.02,4.67,8.38,14.53,26.06,20.05,32.95,1.17,1.46,2.77,2.34,4.46,3.03ZM150.31,100.16c-1.55-1.3-3.86,3.21-3.54,3.98.38.91,6.92,10.28,8.12,11.94,2.47,3.42,6,6.49,8.66,10.34,7.09,10.31,12.55,21.52,19.77,31.72-8.84-20.48-21.42-39.04-33.01-57.99ZM97.32,218.15c.39-1.56-.41-2.35-.95-3.54-10.55-23.51-26.34-42.37-38.53-64.47l-6.51-17.98c-1.43,10.73-5.84,23.18-3.59,33.99.69,3.3,3.05,6.19,3.41,8.77.27,1.9-.89,3.55-.34,5.2.95,2.84,18.54,23.91,21.6,26.45,6.56,5.46,16.29,10.75,24.9,11.59ZM141.41,152.08c-.33-.2.83-5.23-2.6-6.91-2.62-.53-1.42,2.76-1.01,4.02,4.05,12.57,13.68,32.83,19.34,45.66,1.84,4.16,9.14,20.8,11.48,23,5.23,4.91,17.79-4.97,17.41-11.04-.3-4.75-21.82-34.75-26.16-40.71-1.04-1.43-2.27-2.78-3.49-4.42-3.71-4.99-7.52-9.91-11.06-15.03-2.29-1.02-.49,1.47-.19,2.2.46,1.15,2.8,5.63,2.18,6.31-2.48.61-2.18-1.89-3.31-2.74-.71-.53-2.18-.07-2.61-.33ZM208.74,176.75c-3.08-3.71-14.36-18.06-17.92-19.58-1.23-.53-1.88.23-1.48,1.48,10.63,14.26,19.03,31.35,33.98,41.52-.87-9.3-8.92-16.59-14.58-23.41ZM233.11,207.95c.85-.61,1.32-4.07,1.3-5.29-.11-6.35-6.81-17.6-13.07-19.5-1.37,1.81,6.22,9.72,7.21,12.27,2.46,6.36-2.02,16.55-9.36,10.37l-11.85-9.64c-.89.93,7.64,12.19,9.7,12.79,2.35.68,14.32.26,16.07-1Z"/>
    <path d="M79.32,22.15l15.01,48.48c-3.17,3.75-5.03-5.19-7.4-6.58l-11.6-22.89c.26,5.17,14.13,33.49,11.98,35.99-2.12.46-2.27-1.08-3.17-2.32-4.35-6-7.26-13.66-10.98-20.06-.58-.99-4.51-4.52-5.13-5.87-1.92-4.14-4.16-14.69-4.66-19.32-.22-1.99,1.33-2.07,1.93-1.43s3.75,13.93,5.54,15.97l6.46,13.03-8.98-32.99,4.65,4.22c1.61,5.89,4.98,13.1,7.86,18.76.59,1.15.94,2.77,2.48,3.01-.54-3.79-8.3-26.72-6.99-28,.21-.2,2.18.11,2.99-.01Z"/>
    <path d="M31.33,178.16c-1.1,6.37,3.75,19.36,10.52,20.99.65.16.61-1.77,1.51-2.42,3.75-2.69,7.9-.88,11.97-.57.49,1.71-2.21.52-1.98,1.45.27,1.1,1.62,2.53,1.78,4.27.22,2.32-6.94,19.25-8.29,19.24-2.53-4.64-5.57-5.43-9.05-7.97-.98-.72-1.15-2.48-2.13-3.08-2.45-1.49-7.72-1.04-9.11-5.64-2-6.62,3.35-7.8,8.8-7.3-2.88-4.68-6.19-10.88-6.04-16.47.06-2.04-.65-2.93,2.04-2.51Z"/>
    <path d="M30.34,118.15c1.27,1.16,7.25-6.68,7.09.51-.06,2.68-1.57,2.9-2.45,4.51-.36.66.39,1.87.31,1.92-.63.41-4.59.25-5.95,1.07v.97c2.92-.56,2.43,2.92,1.47,5-1.26,2.73-11.43,7.23-13.48,5.58-2.91-2.34,1.4-10.42,4-12.07-8.5-2.98-1.65-3.58-1-4.52.39-.56-4.5-4.87.76-12.72,1.04-1.56,1.84-3.8,3.76-2.28,2.72,2.15,5.33,8.5,5.49,12.02Z"/>
    <path d="M86.37,237.07c.16.22,4.59,2.33,4.94,2.08.21-.16,0-2.46,2.77-3.75,16.5-7.68,22.83,17.52,4.82,16.68-8.82-.41-7.41-6.85-8.58-7.94-.49-.45-12.28,3.45-9.91-3.41.53-1.52,3.2-1.34,2.91-2.07l-10.99-5c1.2-3.08,7.58,1.43,9.51,1.42,1.34,0,2.65-2.01,4.41-.99l1.08-4.92c-1.1.17-4.73-.29-5.01-.02-.57.57,1.28,4.84-1.48,4.01-2.4-.71.94-10.49,7.5-5.49,2.34,1.78-2.39,8.82-1.97,9.4ZM95.63,248.82c14.47,5.09,16.49-12.67,4.2-12.67-6.64,0-9.35,4.3-7.55,10.4.28.95,1.74.44,2.62.99.42.26.5,1.2.72,1.28Z"/>
    <path d="M24.32,160.14c.23.22,3.43.06,4.76,1.27,1,.91,3,7.02,2.25,7.74-6.39-2.19-12.7,9.13-17.96,4.47-.86-.76-2.79-4.14-2.88-5.15-.39-4.48,9.96-4.35,1.85.17,4.64,10.39,9.34-2.93,16.98-1.49,1.53-1.29-3.08-3.65-3.75-3.78-3.25-.65-7.64,4.46-10.53-1.48-2.37-4.87,1.94-5.31,2.98-7.02,1.29-2.12-.03-8.49,5.31-5.22,4.93,3.01.58,10.11.99,10.5Z"/>
  </g>
</svg>