<?xml version="1.0" encoding="UTF-8"?>
<svg id="Layer_1" data-name="Layer 1" xmlns="http://www.w3.org/2000/svg" viewBox="0 0 211.48 194.28">
  <g id="Plate">
    <path d="M173.61,35.68c14.43,11.46,20.17,27.82,28.39,43.04,5.09,9.43,7.86,11.02,9.05,23,4.82,48.59-31.41,79.85-75.36,89.62-34.11,7.58-60.03-.08-89.64-16.62-9.84-5.49-24.36-25.25-28.26-35.84-.67-1.82.27-3.38-.27-4.6C11.22,119.97,1.09,111.84.07,94.7c-.85-14.26,6.36-30.59,12.51-43.47C25.48,24.17,68.49,6.17,97.55,7.23c3.28.12,12.69,2.49,14.88,2.07,1.78-.35,1.28-14.66,10.14-7.09,2.36,2.02,3.03,6.2,4.53,7.47,3.19,2.7,20.16,8.2,25.65,11.35,5.77,3.31,15.52,10.42,20.86,14.66ZM128.06,13.21c-.46,3.92-7.76,18.19-10.49,20.02-1.23.82-2.58.71-2.49-.52.07-1.06,10.38-13.47,10.97-18.09.47-3.66-2.79-11.04-6.98-11.41-5.84,26.87-29.08,34.17-53.02,39.03l1.66,7.02c8.42-.3,22.77,2.2,29.33-4.57,2.53-2.61.66-6.73,6.47-7.52,10.45-1.43,26.17,3.88,38.1,3.18.57-.03-.03,1.71,1.87,1.95,4.12.52,20.73-2.8,22.46.03.91,1.49-.89,4.5-.35,5.94.48,1.28,3.31,1.98,3.27,4.25s-3.26,12.77-4.08,15.93c-1.36,5.22-2.8,10.55-4.17,15.83-1.82,7-7.86,11.57-13.65,15.34-3.71,2.41-9.56,6.15-13.77,7.01-2.44.5-12.59-1.38-6.18,2.1,7.21,3.92,15.08,5.53,22.67,8.37,1.27.48,3.07.22,3.38,2.11l-8.88-.88c-.69,4.44-11.44,14.04-15.18,15.38-4.52,1.62-12.48-4.2-11.94-9.49,1.29-1.47,6.27,7.89,11.02,6.6,1.44-.39,9.97-7.98,11.5-9.58,1.13-1.19,2.79-2.1,2.47-4.02-4.63-1.52-28.94-9.2-30.41-11.99-.37-.7.5-1.96.41-2.01-.9-.53-9.47.33-12.27-.24-3.17-.65-4.98-3.31-7.51-4.48-2.15-.99-7.96-1.5-8.29-1.77-.91-.75-.52-2.64-1.61-3.59-.54-.48-12.39-5.29-13.29-5.49-1.67-.36-3.15.66-4.4.43-3.46-.62-21.37-4.3-22.98-3.79-1.25.39-1.49,1.31-1.68,2.46-.27,1.62-.08,9.82-.01,12.01.17,5.76-.02,8.89,7.26,8.24,2.69-.24,5.18-1.99,7.56-2.52,6.86-1.53,13.78-2.86,20.64-4.36,1.65-.36,5.73-3.82,6.48-.33s-4.91,17.03-5.34,21.27c-.21,2.02.47,5.26.53,7.69.04,1.65-.94,3.22-.94,4.01,0,.41,5.62,4,4.86,6.43-2.7.77-3.72-4.99-5.5-4.97-.54,0-3.14,4.79-9.8,2.77-.97-.29-9.92-7.82-11.71-9.28-1.65-1.35-3.76-4.92-4.27-5.24-1.15-.71-2.84-.14-4.81-1.69-5.69-4.44-9.82-24.09-8.86-31.02.46-3.31,6.09-12.31,5.93-13-.29-1.27-6.51-3.39-6-6.57-4.25,2.26-2.49,7.45-3.26,11.22-3.13,15.29-4.47,23.46,5.44,37.12,15.37,21.18,31.46,30.41,57.6,33.48,13.39,1.58,50.27-10.77,57.22-24.35l4.51-8.47c2.51,1.21.13,4.03.91,5.02.71.9,2.72.78,3.56,1.51,1.02.88.92,2.39,1.67,3.38,1.46,1.94,3.52-.03,1.58,4.79-1.72,4.27-24.87,21.22-29.5,23.49-5.03,2.47-20.55,5.22-26.28,5.72-27.97,2.43-63.3-10.45-76.63-36.21-5.17-9.99-11.12-34.72-7.85-45.27.48-1.55,5.95-11.32,7-12.73.65-.88,1.55-1.21,2.58-1.42,4.23,4.16,8.85,7.78,14.11,10.59l34.42,12.68,12.96-42.55c-9.76,4.69-19.58,3.79-30.02,2.51-1.49-.85-3.05-9.12-3.01-11.05.01-.7,2.72-9.29,3-9.76,1.05-1.76,10.48-1.86,13.48-2.75,2.02-.6,3.33-2.21,5.28-2.72,2.99-.78,11.09-1.04,12.99-1.87,1.57-.68,1.82-2.76,3.3-3.81,1.19-.84,11.9-5.73,9.96-7.55-19.87-2.27-41.93-.85-59.69,8.8-10.77,5.85-26.8,16.28-33.74,26.26-4.38,6.29-15.19,33.85-15.6,41.39-.64,11.73,2.48,18.65,7.11,27.86,23.54,46.85,68.18,67.98,119.97,57.22,22.48-4.67,35.64-16.92,52.46-30.54,28.61-23.15,22.74-63.65,3.93-90.93-6.76-9.81-21.61-19.89-31.91-26.09-2.61-1.57-24.45-13.17-25.52-11.98ZM107.8,22.95c.39-.39,3.58-5.69,2.77-6.73-2.03,1.45-4.87,1.63-6.87,3.13-1.14.85-5.81,6.88-6.27,6.92-3.91.28-6.5-1.72-11.94.86s-2.75,8.63,3.84,6.85c1.04-.28,17.67-10.21,18.49-11.02ZM102.85,78.92c7.14-5.4-3.26-31.77.19-39.71-2.09,1.14-2.67,4.83-3.43,7.06-3.74,10.91-7.55,22.09-9.57,33.43l1.02-2.49c1.61.08,1.45,2.72,2.69,3.03.97.25,8.73-1.05,9.09-1.32ZM163.06,44.22c-5.59-1.79-11.26,1.12-16.35.92-6.22-.23-15.29-3.64-21.6-4.51-2.42-.33-19.07-1.82-19.91-1.29-3.24,2.03,1.54,19.23,1.85,23.37.26,3.51.13,8.49-.18,12.02-.2,2.33-2.36,3.84-.69,6.37,3.56.07,15.17.54,15.91-3.41,1.67-8.98-12.09-27.49-13.02-37.48,2.89-.54,1.62.78,2.24,2.21,3.51,8.08,8.31,17.81,11.24,25.81,1.23,3.38,2.73,7.6,1.53,10.98,10.75.43,16.74-8.21,22.74-15.51-.26-3.26-19.8-13.61-23-16.45-.53-.47-1.98-2.84-1.74-3.02,2.75-.1,5.4.75,8.01,1.48,4.21,1.19,8.84,2.6,11.73,3.45,2.33.68,8.1,2.44,9.8,1.17,2.21-1.64,1.28-5.6,4.46-5.11-.31,7.05-9.5,28.06-15.06,31.43-3.13,1.9-14.74,5.83-18.51,6.49-7.79,1.36-17.36.7-24.92.16-3.19-.23-6.24-1.56-9.51-1.09l-1.99,12c14.79-1.37,36.12,1.52,49.23-7.04,9.58-6.25,18.14-17.22,22.54-27.69,2.02-4.82,3.01-10.46,5.22-15.27ZM152.05,52.22c-6.34,1.54-13.24-3.34-19.99-2.99l15.5,12.99c1.71-3.17,4.61-6.12,4.49-9.99ZM45.06,112.23c3.82,6.47,18.07,25.35,26.26,22.83,6.2-1.91,2.56-10.94,2.77-14.29.3-4.65,5.58-13.62,4.95-19.55-7.45,7.01-12.74,16.17-19.61,23.88l-2.37-1.86c3.72-.22,3.84-3.81,5.55-5.96,1.14-1.43,10.94-11.7,9.43-13.06l-26.99,8.01ZM41.71,124.57c-.75-.92-2.61-1.53-3.69-2.8-4.2-4.95-8.13-13.11-8.97-19.55-1.77-.24-.99,2.27-.87,3.37.91,8.65,4.76,18.23,9.64,25.4,7.81,11.47,15.55,17.17,28.26,22.71,17.05,7.43,31.7,10.73,49.44,4.47,10.94-3.86,21.3-6.78,28.54-16.46l-9.54,2.46c-25.77,12.55-52.52,12.08-77.17-2.75-6.74-4.06-10.92-11.07-15.64-16.86Z"/>
    <path d="M178.21,73.06c.4.61,2.73.5,3.61,1.38,2.02,1.99,1.65,14.6.95,18-.52,2.55-5.99,17.31-7.21,18.78-1.42,1.71-6.6,1.67-7.36-.64-2.14-6.46,5.33-24.43,5.89-32.83.47-6.99-1.29-11.85-2.02-18.54,5.09,1.52,4.87,11.86,6.14,13.85Z"/>
    <path d="M96.06,15.22c-.4,1.92-2,1.77-3.49,2-15,2.33-30.05,4.37-43.83,11.17l-17.68,11.81c-1.26-1.42,8.62-9.35,10.08-10.41,15.42-11.24,36.1-14.71,54.92-14.57Z"/>
    <path d="M89.71,100.56c2.57,2.93,5.54,8.94,8.83,12.67s20.97,19.99,21.45,22.62c1.21,6.65-24.08,12.35-28.93,6.86,4.7.35,24.65-.66,25.93-6.1.66-2.81-20.59-22.77-23.93-26.89-1.98-2.44-4.34-6.67-6.01-9.49l-2.98,2.99c-.83-5.36,2.49-6.26,5.65-2.65Z"/>
    <path d="M98.06,167.23c.7.71.53,2.13-1.41,1.91-5.05-.55-12.29-2.39-17.41-3.61-21.38-5.1-32.61-13.74-50.18-25.85-1.09-.75-2.62.29-2-2.46,6.13,1.6,11.54,6.95,17.07,10.42,5.97,3.73,12.16,7.18,18.2,10.8,4.49,2.67,34.42,7.49,35.72,8.79Z"/>
    <path d="M26.05,42.22c.7.72-9.13,15.24-10.17,17.32-7.24,14.44-8.92,28.62-6.04,44.42.36,1.98-1.21,1.79-1.76,1.25-.38-.37-1.89-9.04-2-10.51-1.44-19.39,5.78-34.98,16.81-50.16.9-1.24,1.04-2.78,3.17-2.32Z"/>
    <path d="M189.05,111.22c.6.67-1.92,7.64-2.51,8.98-3.53,8.09-9.15,12.61-15.18,18.38-.4.38-.12,1.77-1,2.65-2.08,2.08-6.01,2.92-4.9-1.09.79-2.85,9.1-9.45,11.57-12.45,3.7-4.49,5.82-9.7,8.83-14.17.5-.74,2.07-3.56,3.19-2.3Z"/>
  </g>
</svg>