<?xml version="1.0" encoding="UTF-8"?>
<svg id="Layer_8" data-name="Layer 8" xmlns="http://www.w3.org/2000/svg" viewBox="0 0 56.44 44.07">
  <path d="M45.62,40.45c-1.42,1.77-6.58.88-8.66.51-15.49-2.76-27.57-16.78-27.97-32.55-.04-1.57.23-2.97,1.67-3.83.87-.52,6.11-2.04,7.22-2.2,2.23-.32,3.06.33,3.97,2.21s2.37,5.12,2.92,6.98-.16,2.84-1.47,4.04c-.41.38-2.98,2.25-3.05,2.46-.15.45,1.47,3,1.82,3.53,2.14,3.23,5.31,6.18,8.72,8.03.34.18,1.44.83,1.74.6,2.06-2.17,3.06-5.52,6.69-4.39,1.8.56,5.26,2.06,6.96,2.94,1.16.6,2.04,1.42,2.05,2.84.01,1.19-1.41,6.24-1.9,7.52-.16.41-.45.96-.72,1.3ZM23.84,25.9c-1.68-1.78-3.65-4.43-4.64-6.67-.31-.69-.64-1.21-.06-1.9.91-1.07,3.04-2.13,3.98-3.23.62-.73.6-1.34.36-2.2-.67-2.35-2.25-4.88-3.02-7.25-.56-.84-1.08-1.04-2.08-.92-1.46.18-5.19,1.27-6.64,1.8-1.61.59-1.49,1.69-1.41,3.25.85,16.8,13.92,30.03,30.64,31.35.59.05,1.66.15,2.2.13,1.08-.04,1.61-.69,1.93-1.62.51-1.45,1.62-5.22,1.79-6.65.1-.84-.12-1.27-.8-1.74-.77-.53-6.7-3.06-7.62-3.26-1.11-.24-1.54.05-2.27.79-.95.98-1.9,2.64-2.87,3.49-.65.58-1.15.48-1.89.16-2.52-1.09-5.72-3.54-7.61-5.54Z"/>
</svg>