<?xml version="1.0" encoding="UTF-8"?>
<svg id="Layer_8" data-name="Layer 8" xmlns="http://www.w3.org/2000/svg" viewBox="0 0 56.44 44.07">
  <path d="M10.08,19.03c-.23-.06-.26.09-.39.19-1.28.98-2.44,2.4-3.79,3.34-.86.37-1.32-.47-.75-1.14,7.35-6.12,14.17-12.91,21.51-19.04,1.42-1.19,1.3-1.54,2.85-.26,7.35,6.06,14.2,13.03,21.58,19.1.7.56.59,1.62-.46,1.38-1.38-.98-2.56-2.37-3.88-3.38-.13-.1-.16-.25-.39-.19v19.37c0,1.79-2.65,4.28-4.48,4.33l-26.94.02c-1.97.14-4.85-2.45-4.85-4.35v-19.37ZM15.2,41.44c2.05.22,4.45-.16,6.54,0v-14.05c0-.67.98-1.39,1.63-1.48,2.97-.4,6.86.23,9.91.05.55.04,1.42.93,1.42,1.43v14.05h6.54c.37,0,1.41-.37,1.78-.56,1.36-.67,1.84-1.97,2.03-3.41v-19.65c-5.41-4.68-10.59-9.66-16.05-14.28-.14-.12-.71-.59-.82-.57l-16.77,14.85v19.65c.18,2.23,1.54,3.73,3.8,3.97ZM33.4,41.44v-13.67c0-.4-.64-.56-.97-.59-2.71-.25-5.81.2-8.56,0-.28-.06-.84.34-.84.59v13.67h10.37Z"/>
</svg>