<?xml version="1.0" encoding="UTF-8"?>
<svg id="Layer_8" data-name="Layer 8" xmlns="http://www.w3.org/2000/svg" viewBox="0 0 56.44 44.07">
  <path d="M4.88,5.8c.9-.88,2.17-1.47,3.4-1.72,12.74-.53,25.57-.07,38.34-.23,3.66.27,6.23,2.19,6.84,5.9-.54,8.39.71,17.68,0,25.97-.27,3.18-2.55,5.67-5.74,6.06H8.68c-3.38-.49-5.5-3.02-5.74-6.37-.6-8.17.46-17.08,0-25.33.22-1.57.79-3.15,1.94-4.27ZM51.7,13.11c.29-3.07,0-6.55-3.55-7.32-13.26-.33-26.64-.32-39.9,0-3.45.81-3.88,4.29-3.54,7.32l19.41,15.6c2.14,1.9,5,2.43,7.36.6l20.22-16.21ZM51.73,15.34l-18.99,15.23c-3.24,2.24-5.96,2.19-9.17-.07-5.99-4.21-11.87-9.83-17.73-14.38-.37-.29-.75-.59-1.18-.79v20.85c0,.08.45,1.33.54,1.5.76,1.55,2.74,2.43,4.41,2.51h37.47c1.69-.23,3.3-.94,4.1-2.52.12-.23.54-1.35.54-1.5V15.34Z"/>
</svg>